<svg xmlns="http://www.w3.org/2000/svg" viewBox="0 0 80 90" width="80" height="90" fill="none">

  <!-- === CAPE (rendered first, behind everything) === -->
  <path d="M22 46 Q15 60 20 75 Q29 82 40 82 Q51 82 60 75 Q65 60 58 46 Q50 51 40 51 Q31 51 22 46Z" fill="#f0e8d4" stroke="#c8b89a" stroke-width="1"/>
  <path d="M26 54 Q40 59 54 54" stroke="#c8b89a" stroke-width="0.7" stroke-dasharray="2.5,2" fill="none"/>
  <!-- Green clasp -->
  <circle cx="40" cy="47.5" r="2.5" fill="#6ee7b7" stroke="#059669" stroke-width="0.8"/>

  <!-- === LEGS === -->
  <rect x="30" y="62" width="9" height="10" rx="3" fill="#065f46"/>
  <rect x="41" y="62" width="9" height="10" rx="3" fill="#065f46"/>

  <!-- === BOOTS === -->
  <rect x="26" y="68" width="16" height="11" rx="5.5" fill="#2c1806"/>
  <rect x="38" y="68" width="16" height="11" rx="5.5" fill="#2c1806"/>
  <ellipse cx="31" cy="71" rx="5" ry="2.5" fill="#4a2e0a" opacity="0.5"/>
  <ellipse cx="43" cy="71" rx="5" ry="2.5" fill="#4a2e0a" opacity="0.5"/>

  <!-- === BODY — Forest green blazer === -->
  <rect x="25" y="43" width="30" height="22" rx="7" fill="#059669" stroke="#047857" stroke-width="1.2"/>
  <!-- Lapels -->
  <path d="M25 43 Q31 52 36 48 L36 43Z" fill="#047857"/>
  <path d="M55 43 Q49 52 44 48 L44 43Z" fill="#047857"/>
  <!-- White blouse -->
  <rect x="36" y="43" width="8" height="13" rx="1" fill="#f8fafc"/>
  <!-- Green bow -->
  <polygon points="37,47 40,50 37,53" fill="#6ee7b7"/>
  <polygon points="43,47 40,50 43,53" fill="#6ee7b7"/>
  <circle cx="40" cy="50" r="1.8" fill="#10b981"/>
  <!-- Clipboard (right side) -->
  <rect x="55" y="48" width="10" height="13" rx="2" fill="#ecfdf5" stroke="#059669" stroke-width="1"/>
  <rect x="57.5" y="46.5" width="5" height="3" rx="1.5" fill="#059669"/>
  <line x1="57" y1="53" x2="63" y2="53" stroke="#059669" stroke-width="0.8"/>
  <line x1="57" y1="56" x2="63" y2="56" stroke="#059669" stroke-width="0.8"/>
  <line x1="57" y1="59" x2="62" y2="59" stroke="#059669" stroke-width="0.8"/>

  <!-- === HAIR BEHIND HEAD (drawn before face) === -->
  <ellipse cx="40" cy="21" rx="22" ry="21" fill="#7c3d11" stroke="#4a3728" stroke-width="1.5"/>
  <!-- Bun detail on upper right -->
  <circle cx="53" cy="10" r="7" fill="#6b3410" stroke="#4a3728" stroke-width="1"/>
  <circle cx="53" cy="10" r="5" fill="#7c3d11"/>
  <!-- Hair highlight blob -->
  <ellipse cx="33" cy="12" rx="8" ry="5" fill="white" opacity="0.2" transform="rotate(-20,33,12)"/>

  <!-- === HEAD/FACE === -->
  <ellipse cx="40" cy="26" rx="19" ry="18" fill="#fcebd8" stroke="#4a3728" stroke-width="1.8"/>

  <!-- Ears -->
  <ellipse cx="21.5" cy="27" rx="3" ry="4" fill="#fcebd8" stroke="#4a3728" stroke-width="1.2"/>
  <ellipse cx="58.5" cy="27" rx="3" ry="4" fill="#fcebd8" stroke="#4a3728" stroke-width="1.2"/>
  <ellipse cx="21.5" cy="27" rx="1.8" ry="2.5" fill="#f5b8a0" opacity="0.6"/>
  <ellipse cx="58.5" cy="27" rx="1.8" ry="2.5" fill="#f5b8a0" opacity="0.6"/>

  <!-- === BANGS — auburn, slightly fuller side === -->
  <path d="M21 25 Q23 12 31 10 Q36 6 40 7 Q44 6 49 10 Q57 12 59 25 Q55 17 49 19 Q46 11 40 11 Q34 11 31 19 Q25 17 21 25Z" fill="#7c3d11" stroke="#4a3728" stroke-width="1"/>

  <!-- === CHEEK BLUSH === -->
  <ellipse cx="27" cy="33" rx="6" ry="3.5" fill="#f9a8d4" opacity="0.35"/>
  <ellipse cx="53" cy="33" rx="6" ry="3.5" fill="#f9a8d4" opacity="0.35"/>

  <!-- === FOCUSED BROWS === -->
  <path d="M24 18 Q31 15 38 18" stroke="#7c2d12" stroke-width="2" stroke-linecap="round" fill="none"/>
  <path d="M42 18 Q49 15 56 18" stroke="#7c2d12" stroke-width="2" stroke-linecap="round" fill="none"/>

  <!-- === EYES — anime chibi style (LEFT) === -->
  <!-- Eye white -->
  <ellipse cx="31" cy="27" rx="7.5" ry="9" fill="white" stroke="#4a3728" stroke-width="0.5"/>
  <!-- Top lash — THICK curved line -->
  <path d="M23 19 Q31 15 39 19" stroke="#4a3728" stroke-width="3" fill="none" stroke-linecap="round"/>
  <!-- Iris — warm brown -->
  <ellipse cx="31" cy="28" rx="6" ry="7.5" fill="#9b6230"/>
  <!-- Iris lighter top zone -->
  <ellipse cx="31" cy="24" rx="5" ry="4" fill="white" opacity="0.3"/>
  <!-- Pupil -->
  <ellipse cx="31" cy="29" rx="3.2" ry="4.5" fill="#1a2540"/>
  <!-- Large white highlight upper-left -->
  <ellipse cx="27.5" cy="22.5" rx="3" ry="3.5" fill="white"/>
  <!-- Small white highlight lower-right -->
  <circle cx="36" cy="33" r="1.5" fill="white" opacity="0.85"/>
  <!-- Bottom lash line (thin) -->
  <path d="M23.5 35.5 Q31 38 38.5 35.5" stroke="#4a3728" stroke-width="1" fill="none" stroke-linecap="round"/>

  <!-- === EYES — anime chibi style (RIGHT) === -->
  <ellipse cx="49" cy="27" rx="7.5" ry="9" fill="white" stroke="#4a3728" stroke-width="0.5"/>
  <path d="M41 19 Q49 15 57 19" stroke="#4a3728" stroke-width="3" fill="none" stroke-linecap="round"/>
  <ellipse cx="49" cy="28" rx="6" ry="7.5" fill="#9b6230"/>
  <ellipse cx="49" cy="24" rx="5" ry="4" fill="white" opacity="0.3"/>
  <ellipse cx="49" cy="29" rx="3.2" ry="4.5" fill="#1a2540"/>
  <ellipse cx="45.5" cy="22.5" rx="3" ry="3.5" fill="white"/>
  <circle cx="54" cy="33" r="1.5" fill="white" opacity="0.85"/>
  <path d="M41.5 35.5 Q49 38 56.5 35.5" stroke="#4a3728" stroke-width="1" fill="none" stroke-linecap="round"/>

  <!-- === NOSE — tiny two dots === -->
  <circle cx="38.5" cy="36" r="1.2" fill="#c97b5a" opacity="0.6"/>
  <circle cx="41.5" cy="36" r="1.2" fill="#c97b5a" opacity="0.6"/>

  <!-- === MOUTH — determined small straight mouth === -->
  <path d="M36 40 Q40 42 44 40" stroke="#c97b5a" stroke-width="1.8" stroke-linecap="round" fill="none"/>

</svg>
